<svg xmlns="http://www.w3.org/2000/svg" width="240" height="240" viewBox="0 0 240 240">
  <defs>
    <style>
      .cls-1 {
        fill: #6255f6;
      }

      .cls-1, .cls-2 {
        fill-rule: evenodd;
      }

      .cls-2 {
        fill: #74eb8b;
      }
    </style>
  </defs>
  <path id="pattern_1" class="cls-1" d="M14.511,12A2.512,2.512,0,1,1,12,14.511,2.512,2.512,0,0,1,14.511,12Zm30.139,0a2.512,2.512,0,1,1-2.511,2.512A2.512,2.512,0,0,1,44.651,12Zm30.14,0a2.512,2.512,0,1,1-2.512,2.512A2.512,2.512,0,0,1,74.79,12Zm30.14,0a2.512,2.512,0,1,1-2.512,2.512A2.512,2.512,0,0,1,104.93,12Zm30.139,0a2.512,2.512,0,1,1-2.511,2.512A2.512,2.512,0,0,1,135.069,12Zm30.14,0a2.512,2.512,0,1,1-2.512,2.512A2.512,2.512,0,0,1,165.209,12Zm-150.7,60.28A2.511,2.511,0,1,1,12,74.789,2.511,2.511,0,0,1,14.511,72.278Zm30.139,0a2.511,2.511,0,1,1-2.511,2.511A2.511,2.511,0,0,1,44.651,72.278Zm30.14,0a2.511,2.511,0,1,1-2.512,2.511A2.511,2.511,0,0,1,74.79,72.278Zm30.14,0a2.511,2.511,0,1,1-2.512,2.511A2.511,2.511,0,0,1,104.93,72.278Zm30.139,0a2.511,2.511,0,1,1-2.511,2.511A2.511,2.511,0,0,1,135.069,72.278Zm30.14,0a2.511,2.511,0,1,1-2.512,2.511A2.511,2.511,0,0,1,165.209,72.278Zm-150.7,60.279A2.512,2.512,0,1,1,12,135.068,2.511,2.511,0,0,1,14.511,132.557Zm30.139,0a2.512,2.512,0,1,1-2.511,2.511A2.511,2.511,0,0,1,44.651,132.557Zm30.14,0a2.512,2.512,0,1,1-2.512,2.511A2.511,2.511,0,0,1,74.79,132.557Zm30.14,0a2.512,2.512,0,1,1-2.512,2.511A2.512,2.512,0,0,1,104.93,132.557Zm30.139,0a2.512,2.512,0,1,1-2.511,2.511A2.511,2.511,0,0,1,135.069,132.557Zm30.14,0a2.512,2.512,0,1,1-2.512,2.511A2.512,2.512,0,0,1,165.209,132.557Zm-150.7,60.279A2.512,2.512,0,1,1,12,195.348,2.512,2.512,0,0,1,14.511,192.836Zm30.139,0a2.512,2.512,0,1,1-2.511,2.512A2.512,2.512,0,0,1,44.651,192.836Zm30.14,0a2.512,2.512,0,1,1-2.512,2.512A2.512,2.512,0,0,1,74.79,192.836Zm30.14,0a2.512,2.512,0,1,1-2.512,2.512A2.512,2.512,0,0,1,104.93,192.836Zm30.139,0a2.512,2.512,0,1,1-2.511,2.512A2.512,2.512,0,0,1,135.069,192.836Zm30.14,0a2.512,2.512,0,1,1-2.512,2.512A2.512,2.512,0,0,1,165.209,192.836ZM195.349,12a2.512,2.512,0,1,1-2.512,2.512A2.512,2.512,0,0,1,195.349,12Zm30.139,0a2.512,2.512,0,1,1-2.511,2.512A2.512,2.512,0,0,1,225.488,12Zm-30.139,60.28a2.511,2.511,0,1,1-2.512,2.511A2.51,2.51,0,0,1,195.349,72.278Zm30.139,0a2.511,2.511,0,1,1-2.511,2.511A2.511,2.511,0,0,1,225.488,72.278Zm-30.139,60.279a2.512,2.512,0,1,1-2.512,2.511A2.511,2.511,0,0,1,195.349,132.557Zm30.139,0a2.512,2.512,0,1,1-2.511,2.511A2.512,2.512,0,0,1,225.488,132.557Zm-30.139,60.279a2.512,2.512,0,1,1-2.512,2.512A2.512,2.512,0,0,1,195.349,192.836Zm30.139,0a2.512,2.512,0,1,1-2.511,2.512A2.512,2.512,0,0,1,225.488,192.836Z"/>
  <path id="pattern_2" class="cls-2" d="M14.511,42.138A2.512,2.512,0,1,1,12,44.65,2.512,2.512,0,0,1,14.511,42.138Zm30.139,0a2.512,2.512,0,1,1-2.511,2.512A2.512,2.512,0,0,1,44.651,42.138Zm30.14,0a2.512,2.512,0,1,1-2.512,2.512A2.512,2.512,0,0,1,74.79,42.138Zm30.14,0a2.512,2.512,0,1,1-2.512,2.512A2.512,2.512,0,0,1,104.93,42.138Zm30.139,0a2.512,2.512,0,1,1-2.511,2.512A2.512,2.512,0,0,1,135.069,42.138Zm30.14,0A2.512,2.512,0,1,1,162.7,44.65,2.512,2.512,0,0,1,165.209,42.138Zm-150.7,60.279A2.512,2.512,0,1,1,12,104.929,2.512,2.512,0,0,1,14.511,102.417Zm30.139,0a2.511,2.511,0,1,1-2.511,2.512A2.512,2.512,0,0,1,44.651,102.417Zm30.14,0a2.511,2.511,0,1,1-2.512,2.512A2.512,2.512,0,0,1,74.79,102.417Zm30.14,0a2.512,2.512,0,1,1-2.512,2.512A2.512,2.512,0,0,1,104.93,102.417Zm30.139,0a2.512,2.512,0,1,1-2.511,2.512A2.512,2.512,0,0,1,135.069,102.417Zm30.14,0a2.512,2.512,0,1,1-2.512,2.512A2.512,2.512,0,0,1,165.209,102.417ZM14.511,162.7A2.512,2.512,0,1,1,12,165.208,2.511,2.511,0,0,1,14.511,162.7Zm30.139,0a2.511,2.511,0,1,1-2.511,2.512A2.511,2.511,0,0,1,44.651,162.7Zm30.14,0a2.511,2.511,0,1,1-2.512,2.512A2.511,2.511,0,0,1,74.79,162.7Zm30.14,0a2.512,2.512,0,1,1-2.512,2.512A2.512,2.512,0,0,1,104.93,162.7Zm30.139,0a2.512,2.512,0,1,1-2.511,2.512A2.511,2.511,0,0,1,135.069,162.7Zm30.14,0a2.512,2.512,0,1,1-2.512,2.512A2.512,2.512,0,0,1,165.209,162.7Zm-150.7,60.279A2.512,2.512,0,1,1,12,225.487,2.512,2.512,0,0,1,14.511,222.975Zm30.139,0a2.512,2.512,0,1,1-2.511,2.512A2.512,2.512,0,0,1,44.651,222.975Zm30.14,0a2.512,2.512,0,1,1-2.512,2.512A2.512,2.512,0,0,1,74.79,222.975Zm30.14,0a2.512,2.512,0,1,1-2.512,2.512A2.512,2.512,0,0,1,104.93,222.975Zm30.139,0a2.512,2.512,0,1,1-2.511,2.512A2.512,2.512,0,0,1,135.069,222.975Zm30.14,0a2.512,2.512,0,1,1-2.512,2.512A2.512,2.512,0,0,1,165.209,222.975Zm30.14-180.837a2.512,2.512,0,1,1-2.512,2.512A2.511,2.511,0,0,1,195.349,42.138Zm30.139,0a2.512,2.512,0,1,1-2.511,2.512A2.512,2.512,0,0,1,225.488,42.138Zm-30.139,60.279a2.512,2.512,0,1,1-2.512,2.512A2.512,2.512,0,0,1,195.349,102.417Zm30.139,0a2.512,2.512,0,1,1-2.511,2.512A2.512,2.512,0,0,1,225.488,102.417ZM195.349,162.7a2.512,2.512,0,1,1-2.512,2.512A2.511,2.511,0,0,1,195.349,162.7Zm30.139,0a2.512,2.512,0,1,1-2.511,2.512A2.512,2.512,0,0,1,225.488,162.7Zm-30.139,60.279a2.512,2.512,0,1,1-2.512,2.512A2.512,2.512,0,0,1,195.349,222.975Zm30.139,0a2.512,2.512,0,1,1-2.511,2.512A2.512,2.512,0,0,1,225.488,222.975Z"/>
</svg>
