<svg xmlns="http://www.w3.org/2000/svg" width="570" height="140" viewBox="0 0 570 140">
  <defs>
    <style>
      .cls-1 {
        fill: #f5f5fa;
        fill-rule: evenodd;
        mix-blend-mode: screen;
      }
    </style>
  </defs>
  <path id="pattern_logo_muu" class="cls-1" d="M553.488,84A13.5,13.5,0,1,1,567,70.5,13.506,13.506,0,0,1,553.488,84ZM454.4,138a54.024,54.024,0,0,1-54.048-54V16.5a13.512,13.512,0,0,1,27.024,0V84a27.024,27.024,0,0,0,54.048,0V16.5a13.512,13.512,0,0,1,27.024,0V84A54.024,54.024,0,0,1,454.4,138ZM359.816,84a13.5,13.5,0,1,1,13.512-13.5A13.506,13.506,0,0,1,359.816,84Zm-94.584,54a54.024,54.024,0,0,1-54.048-54V16.5a13.512,13.512,0,0,1,27.024,0V84a27.024,27.024,0,0,0,54.048,0V16.5a13.512,13.512,0,0,1,27.024,0V84A54.024,54.024,0,0,1,265.232,138Zm-85.576,0a13.5,13.5,0,1,1,13.512-13.5A13.506,13.506,0,0,1,179.656,138Zm0-31.5A13.506,13.506,0,0,1,166.144,93V57A27.024,27.024,0,0,0,112.1,57v67.5a13.512,13.512,0,0,1-27.024,0V57a27.024,27.024,0,0,0-54.048,0v67.5A13.512,13.512,0,0,1,4,124.5V57A54.008,54.008,0,0,1,98.584,21.364,54.008,54.008,0,0,1,193.168,57V93A13.506,13.506,0,0,1,179.656,106.5Z"/>
</svg>
