<svg xmlns="http://www.w3.org/2000/svg" width="520" height="140" viewBox="0 0 520 140">
  <defs>
    <style>
      .cls-1 {
        fill: #f5f5fa;
        fill-rule: evenodd;
      }
    </style>
  </defs>
  <path id="pattern_logo_with" class="cls-1" d="M503.5,138A13.5,13.5,0,0,1,490,124.5V84H427v40.5a13.5,13.5,0,1,1-27,0V16.5a13.5,13.5,0,0,1,27,0V57h63V16.5a13.5,13.5,0,0,1,27,0v108A13.5,13.5,0,0,1,503.5,138ZM368.5,30H337v94.5a13.5,13.5,0,1,1-27,0V30H278.5a13.5,13.5,0,1,1,0-27h90A13.5,13.5,0,1,1,368.5,30Zm-135,108A13.5,13.5,0,0,1,220,124.5V16.5a13.5,13.5,0,0,1,27,0v108A13.5,13.5,0,0,1,233.5,138ZM139,138a53.814,53.814,0,0,1-40.5-18.365A53.95,53.95,0,0,1,4,84V48a13.5,13.5,0,1,1,27,0V84a27,27,0,0,0,54,0V16.5a13.5,13.5,0,0,1,27,0V84a27,27,0,0,0,54,0V16.5a13.5,13.5,0,0,1,27,0V84A54,54,0,0,1,139,138ZM17.5,30A13.5,13.5,0,1,1,31,16.5,13.5,13.5,0,0,1,17.5,30Z"/>
</svg>
