<svg xmlns="http://www.w3.org/2000/svg" width="40" height="20" viewBox="0 0 40 20">
  <defs>
    <style>
      .cls-1 {
        fill: #6255f6;
      }

      .cls-1, .cls-2 {
        fill-rule: evenodd;
      }

      .cls-2 {
        fill: #74eb8b;
      }
    </style>
  </defs>
  <path id="icon_language" class="cls-1" d="M9.24,6.82a0.171,0.171,0,0,0,.155-0.11c0.007-.074.022-0.023,0.04-0.05S9.4,6.592,9.38,6.588a0.108,0.108,0,0,0-.075.052c-0.011.009-.024,0-0.036,0.009a0.329,0.329,0,0,0-.034.044c-0.01.013,0,.014,0,0.024a0.089,0.089,0,0,1-.043.053c-0.042.043,0,.07,0.044,0.052h0ZM14.993,10a4.765,4.765,0,0,0-.179-1.316,0.3,0.3,0,0,0-.18-0.189,1.734,1.734,0,0,1-.75.127,0.609,0.609,0,0,0-.286,0,0.844,0.844,0,0,0-.3-0.23c-0.154.056,0.237,0.482,0.344,0.538,0.1-.075.426-0.232,0.5-0.019a1.3,1.3,0,0,1-.626,1.075c-0.384.347-.312-0.225-0.574-0.426a4.846,4.846,0,0,0-.275-0.407,1.712,1.712,0,0,1-.344-0.407,0.127,0.127,0,0,1-.008.083,0.256,0.256,0,0,1-.158-0.161,1.444,1.444,0,0,0,.319.5,4.329,4.329,0,0,0,.374.663,2.171,2.171,0,0,0,.518.449c0.1-.008.4-0.229,0.456-0.217,0.322,0.076-.758,1.6-0.86,1.792a2.622,2.622,0,0,0,.057.738,0.571,0.571,0,0,1-.347.4c-0.173.127-.132,0.373-0.278,0.462a1.942,1.942,0,0,1-.812.674,0.781,0.781,0,0,1-.63,0,2.8,2.8,0,0,0-.176-0.351,2.686,2.686,0,0,0-.086-0.362,1.552,1.552,0,0,1-.254-0.339,0.552,0.552,0,0,1,.14-0.354c0.115-.058.022-0.229,0.008-0.328a0.665,0.665,0,0,0-.265-0.425c-0.194-.15-0.094-0.268-0.048-0.482a0.169,0.169,0,0,0-.2-0.2c-0.282.083-.2-0.22-0.4-0.206a1.9,1.9,0,0,0-.407.146,1.281,1.281,0,0,1-.521-0.062,1.089,1.089,0,0,1-.75-1.473,3.051,3.051,0,0,1-.024-0.344,1.8,1.8,0,0,1,.381-0.507,1.417,1.417,0,0,1,.274-0.115A4.626,4.626,0,0,0,8.9,8.351a1.406,1.406,0,0,1,.734-0.194,1.6,1.6,0,0,1,.751-0.03c0,0.02.1,0.3-.009,0.286a2.432,2.432,0,0,0,.73.29c0.106-.044.067-0.368,0.284-0.212a1.242,1.242,0,0,0,.84.035,0.557,0.557,0,0,0,.026-0.511,0.473,0.473,0,0,1-.339.049,0.6,0.6,0,0,1-.212.012C11.767,8.106,11.386,7.9,11.6,7.744c-0.089.065-.173-0.018-0.27,0.054-0.066.055,0.031,0.09-.064,0.137-0.151.077-.265-0.263-0.322-0.3s-0.507-.353-0.385-0.147C10.646,7.631,11,7.848,10.954,7.88c-0.02.013-.1-0.143-0.1-0.029,0.026-.068.01,0.289-0.052,0.174a0.394,0.394,0,0,0,0-.134,0.434,0.434,0,0,0-.136-0.113,1.364,1.364,0,0,0-.318-0.289,2.7,2.7,0,0,0-.412.055,0.9,0.9,0,0,0-.089.156,1.006,1.006,0,0,0-.21.107C9.584,7.851,9.6,7.947,9.557,7.981s-0.382.145-.384,0.149a0.805,0.805,0,0,1-.227-0.16A1.526,1.526,0,0,0,9.03,7.536c-0.024-.1.537,0.142,0.573-0.118,0.015-.112.023-0.244-0.157-0.262a1.317,1.317,0,0,0,.4-0.181,0.64,0.64,0,0,1,.362-0.221c0.142,0,.111-0.207.177-0.307,0.065,0.026-.035.188,0.043,0.253a0.525,0.525,0,0,1,.245.016c0.052-.028.342-0.012,0.3-0.148s0.025-.1.09-0.126c-0.011,0,.17-0.309.2-0.206-0.021-.106-0.21.037-0.276,0.032-0.152-.013-0.088-0.26-0.03-0.333C11,5.878,10.834,5.807,10.831,5.917a2.027,2.027,0,0,0-.12.533c0.054,0.329-.368-0.08-0.4-0.057-0.14.085-.254-0.107-0.182-0.222s0.252-.112.326-0.238a0.984,0.984,0,0,1,.193-0.259c0.268-.225.341-0.045,0.608-0.02s0.088,0.062.052,0.161,0.143,0.129.2,0.049a1.281,1.281,0,0,0,.149-0.247c0.044-.111.451-0.1,0.167-0.268a4.447,4.447,0,0,0-1.548-.336,0.56,0.56,0,0,0-.291.206,1.279,1.279,0,0,1-.888.35,2.137,2.137,0,0,0-.9.332A0.3,0.3,0,0,1,8.372,5.56a4.822,4.822,0,0,0,.6-0.43,3.327,3.327,0,0,0-1.338.512c0.029,0.046.149,0.046-.008,0.147a3.036,3.036,0,0,1-.271.4c-0.252.111-.268-0.217-0.549,0.2-0.056.082-.355,0.089-0.447,0.181a4.977,4.977,0,0,0-1.29,2.591,0.691,0.691,0,0,0,.189.14,2.1,2.1,0,0,1,.084.451,2.556,2.556,0,0,0,.37.59,1.116,1.116,0,0,1,.165.592,1.694,1.694,0,0,1,.623.511c0.207,0.244.367,0.538,0.03,0.779a4.576,4.576,0,0,1,.024.685c-0.019.015-.135,0.019-0.181,0.046a0.335,0.335,0,0,0,.011.492A4.994,4.994,0,0,0,14.993,10ZM11.845,7.314c0-.073-0.1-0.142-0.191-0.015a1.353,1.353,0,0,0-.092.278c-0.052.088,0.284,0.17,0.284,0.087,0.013-.139.366-0.032,0.435-0.013,0.124,0.035.321-.113,0.105-0.19A0.347,0.347,0,0,1,12.1,7.2s0.094-.088.053-0.083C12.043,7.13,11.845,7.509,11.845,7.314ZM16,10a6,6,0,1,1-6-6A6,6,0,0,1,16,10ZM9.5,6.549c-0.02.03,0.047-.021,0.054-0.016C9.582,6.56,9.514,6.58,9.525,6.6a0.192,0.192,0,0,1,0,.166c-0.007.043-.052,0.024-0.075,0.047s0.129,0.038.131,0.043a0.287,0.287,0,0,0-.152.085,0.534,0.534,0,0,0,.354-0.088C9.9,6.8,9.8,6.791,9.739,6.758a0.768,0.768,0,0,0-.106-0.34,0.229,0.229,0,0,1,.044-0.051C9.573,6.218,9.5,6.549,9.5,6.549Zm1.076,1.536a0.33,0.33,0,0,1,.2-0.051C10.814,8.038,10.679,8.259,10.572,8.085Z"/>
  <path id="icon_language_c" class="cls-2" d="M29.24,6.82a0.171,0.171,0,0,0,.155-0.11c0.007-.074.022-0.023,0.04-0.05S29.4,6.592,29.38,6.588a0.108,0.108,0,0,0-.075.052c-0.011.009-.024,0-0.036,0.009a0.324,0.324,0,0,0-.034.044c-0.01.013,0,.014,0,0.024a0.089,0.089,0,0,1-.044.053c-0.042.043,0,.07,0.044,0.052h0ZM34.993,10a4.765,4.765,0,0,0-.179-1.316,0.3,0.3,0,0,0-.18-0.189,1.734,1.734,0,0,1-.75.127,0.609,0.609,0,0,0-.286,0,0.844,0.844,0,0,0-.3-0.23c-0.154.056,0.237,0.482,0.344,0.538,0.1-.075.426-0.232,0.5-0.019a1.3,1.3,0,0,1-.626,1.075c-0.384.347-.312-0.225-0.574-0.426a4.846,4.846,0,0,0-.275-0.407,1.712,1.712,0,0,1-.344-0.407,0.127,0.127,0,0,1-.008.083,0.256,0.256,0,0,1-.158-0.161,1.444,1.444,0,0,0,.319.5,4.329,4.329,0,0,0,.374.663,2.171,2.171,0,0,0,.518.449c0.1-.008.4-0.229,0.456-0.217,0.322,0.076-.758,1.6-0.86,1.792a2.622,2.622,0,0,0,.057.738,0.571,0.571,0,0,1-.347.4c-0.173.127-.132,0.373-0.278,0.462a1.942,1.942,0,0,1-.812.674,0.781,0.781,0,0,1-.63,0,2.8,2.8,0,0,0-.176-0.351,2.686,2.686,0,0,0-.086-0.362,1.552,1.552,0,0,1-.254-0.339,0.552,0.552,0,0,1,.14-0.354c0.115-.058.022-0.229,0.008-0.328a0.665,0.665,0,0,0-.265-0.425c-0.194-.15-0.094-0.268-0.048-0.482a0.169,0.169,0,0,0-.2-0.2c-0.282.083-.2-0.22-0.4-0.206a1.9,1.9,0,0,0-.407.146,1.28,1.28,0,0,1-.521-0.062,1.089,1.089,0,0,1-.75-1.473,3.035,3.035,0,0,1-.024-0.344,1.8,1.8,0,0,1,.381-0.507,1.417,1.417,0,0,1,.273-0.115,4.617,4.617,0,0,0,.286-0.39,1.406,1.406,0,0,1,.734-0.194,1.6,1.6,0,0,1,.751-0.03c0,0.02.1,0.3-.009,0.286a2.432,2.432,0,0,0,.731.29c0.105-.044.067-0.368,0.284-0.212a1.242,1.242,0,0,0,.84.035,0.557,0.557,0,0,0,.026-0.511,0.473,0.473,0,0,1-.339.049,0.6,0.6,0,0,1-.212.012C31.767,8.106,31.386,7.9,31.6,7.744,31.51,7.81,31.427,7.726,31.33,7.8c-0.067.055,0.031,0.09-.064,0.137-0.151.077-.265-0.263-0.322-0.3s-0.507-.353-0.385-0.147C30.646,7.631,31,7.848,30.954,7.88c-0.02.013-.1-0.143-0.1-0.029,0.026-.068.01,0.289-0.052,0.174a0.394,0.394,0,0,0,0-.134,0.434,0.434,0,0,0-.136-0.113,1.364,1.364,0,0,0-.318-0.289,2.694,2.694,0,0,0-.412.055,0.9,0.9,0,0,0-.089.156,1.007,1.007,0,0,0-.21.107c-0.051.046-.039,0.142-0.079,0.176s-0.382.145-.384,0.149a0.805,0.805,0,0,1-.226-0.16,1.531,1.531,0,0,0,.084-0.434c-0.024-.1.537,0.142,0.573-0.118,0.015-.112.023-0.244-0.157-0.262a1.317,1.317,0,0,0,.4-0.181,0.64,0.64,0,0,1,.362-0.221c0.142,0,.111-0.207.177-0.307,0.065,0.026-.035.188,0.043,0.253a0.525,0.525,0,0,1,.245.016c0.052-.028.342-0.012,0.3-0.148s0.025-.1.09-0.126c-0.011,0,.17-0.309.2-0.206-0.021-.106-0.21.037-0.276,0.032-0.152-.013-0.088-0.26-0.03-0.333C31,5.878,30.834,5.807,30.831,5.917a2.027,2.027,0,0,0-.12.533c0.054,0.329-.368-0.08-0.4-0.057-0.14.085-.254-0.107-0.182-0.222s0.252-.112.326-0.238a0.984,0.984,0,0,1,.192-0.259c0.267-.225.341-0.045,0.608-0.02s0.088,0.062.052,0.161,0.143,0.129.2,0.049a1.281,1.281,0,0,0,.149-0.247c0.044-.111.451-0.1,0.167-0.268a4.447,4.447,0,0,0-1.548-.336,0.56,0.56,0,0,0-.291.206,1.279,1.279,0,0,1-.888.35,2.137,2.137,0,0,0-.9.332,0.3,0.3,0,0,1,.178-0.341,4.825,4.825,0,0,0,.6-0.43,3.327,3.327,0,0,0-1.338.512c0.029,0.046.149,0.046-.008,0.147a3.044,3.044,0,0,1-.271.4c-0.252.111-.268-0.217-0.549,0.2-0.056.082-.355,0.089-0.447,0.181a4.977,4.977,0,0,0-1.29,2.591,0.692,0.692,0,0,0,.189.14,2.092,2.092,0,0,1,.083.451,2.558,2.558,0,0,0,.37.59,1.115,1.115,0,0,1,.165.592,1.7,1.7,0,0,1,.623.511c0.207,0.244.367,0.538,0.03,0.779a4.565,4.565,0,0,1,.024.685c-0.019.015-.135,0.019-0.181,0.046a0.335,0.335,0,0,0,.011.492A4.994,4.994,0,0,0,34.993,10ZM31.845,7.314c0-.073-0.1-0.142-0.191-0.015a1.353,1.353,0,0,0-.092.278c-0.052.088,0.284,0.17,0.284,0.087,0.013-.139.366-0.032,0.435-0.013,0.124,0.035.321-.113,0.105-0.19A0.347,0.347,0,0,1,32.1,7.2s0.094-.088.053-0.083C32.043,7.13,31.845,7.509,31.845,7.314ZM36,10a6,6,0,1,1-6-6A6,6,0,0,1,36,10ZM29.5,6.549c-0.02.03,0.047-.021,0.054-0.016,0.032,0.027-.036.047-0.025,0.068a0.192,0.192,0,0,1,0,.166c-0.007.043-.052,0.024-0.075,0.047s0.129,0.038.131,0.043a0.286,0.286,0,0,0-.152.085,0.534,0.534,0,0,0,.354-0.088c0.112-.057.015-0.063-0.048-0.1a0.768,0.768,0,0,0-.107-0.34,0.23,0.23,0,0,1,.044-0.051C29.573,6.218,29.5,6.549,29.5,6.549Zm1.076,1.536a0.33,0.33,0,0,1,.2-0.051C30.814,8.038,30.679,8.259,30.572,8.085Z"/>
</svg>
