<svg xmlns="http://www.w3.org/2000/svg" width="100" height="250" viewBox="0 0 100 250">
  <defs>
    <style>
      .cls-1 {
        fill: #6255f6;
      }

      .cls-1, .cls-2 {
        fill-rule: evenodd;
      }

      .cls-2 {
        fill: #74eb8b;
      }
    </style>
  </defs>
  <path id="icon_close" class="cls-1" d="M25,223.652l-5.366-5.367a0.953,0.953,0,1,0-1.348,1.349L23.652,225l-5.366,5.366a0.953,0.953,0,0,0,1.348,1.348L25,226.347l5.364,5.365a0.953,0.953,0,1,0,1.348-1.348L26.348,225l5.364-5.364a0.953,0.953,0,0,0-1.348-1.348Z"/>
  <path id="icon_cart" class="cls-1" d="M29,184H21a4,4,0,0,1-4-4v-8a2,2,0,0,1,2-2h2a4,4,0,1,1,8,0h2a2,2,0,0,1,2,2v8A4,4,0,0,1,29,184Zm-4-16a2,2,0,0,0-2,2h4A2,2,0,0,0,25,168Zm6,4.249A0.25,0.25,0,0,0,30.75,172H29v1a1,1,0,1,1-2,0v-1H23v1a1,1,0,1,1-2,0v-1H19.25a0.25,0.25,0,0,0-.25.249V180a2,2,0,0,0,2,2h8a2,2,0,0,0,2-2v-7.75ZM28,177a1,1,0,1,1,1-1A1,1,0,0,1,28,177Z"/>
  <path id="icon_mypage" class="cls-1" d="M18,134a1,1,0,0,0,1-1c0-.552,0-3,0-3a2,2,0,0,1,2-2h8a2,2,0,0,1,2,2v0.5a1,1,0,0,0,2,0c0-.453,0-0.5,0-0.5a4,4,0,0,0-4-4H21a4,4,0,0,0-4,4s0,2.448,0,3A1,1,0,0,0,18,134Zm15-4h0Zm-8-6a4,4,0,1,1,4-4A4,4,0,0,1,25,124Zm0-6a2,2,0,1,0,2,2A2,2,0,0,0,25,118Zm7,14a1,1,0,1,0,1,1A1,1,0,0,0,32,132Z"/>
  <path id="icon_search" class="cls-1" d="M33,84a1,1,0,1,1,1-1A1,1,0,0,1,33,84Zm-1.286-3.66a0.972,0.972,0,0,1-1.374,1.374L28.927,80.3A8,8,0,1,1,30.3,78.925ZM24,68a6,6,0,1,0,6,6A6,6,0,0,0,24,68Z"/>
  <path id="icon_home" class="cls-1" d="M32.71,25.7a0.992,0.992,0,0,1-1.4,0L25,19.387,18.684,25.7a0.992,0.992,0,1,1-1.4-1.4l7.013-7.019a0.991,0.991,0,0,1,1.4,0L32.71,24.3A0.994,0.994,0,0,1,32.71,25.7ZM30,29a1,1,0,1,1,1-1A1,1,0,0,1,30,29Zm-10.01-2a1,1,0,0,1,1,1v3H29V30.5a1,1,0,0,1,2,0V32a1,1,0,0,1-1,1H19.995a1,1,0,0,1-1-1V28A1,1,0,0,1,19.995,27Z"/>
  <path id="icon_close_c" class="cls-2" d="M75,223.652l-5.366-5.367a0.953,0.953,0,0,0-1.348,1.349L73.652,225l-5.366,5.366a0.953,0.953,0,0,0,1.348,1.348L75,226.347l5.364,5.365a0.953,0.953,0,1,0,1.348-1.348L76.348,225l5.364-5.364a0.953,0.953,0,0,0-1.348-1.348Z"/>
  <path id="icon_cart_c" class="cls-2" d="M79,184H71a4,4,0,0,1-4-4v-8a2,2,0,0,1,2-2h2a4,4,0,1,1,8,0h2a2,2,0,0,1,2,2v8A4,4,0,0,1,79,184Zm-4-16a2,2,0,0,0-2,2h4A2,2,0,0,0,75,168Zm6,4.249A0.25,0.25,0,0,0,80.75,172H79v1a1,1,0,1,1-2,0v-1H73v1a1,1,0,1,1-2,0v-1H69.25a0.25,0.25,0,0,0-.25.249V180a2,2,0,0,0,2,2h8a2,2,0,0,0,2-2v-7.75ZM78,177a1,1,0,1,1,1-1A1,1,0,0,1,78,177Z"/>
  <path id="icon_mypage_c" class="cls-2" d="M68,134a1,1,0,0,0,1-1c0-.552,0-3,0-3a2,2,0,0,1,2-2h8a2,2,0,0,1,2,2v0.5a1,1,0,0,0,2,0c0-.453,0-0.5,0-0.5a4,4,0,0,0-4-4H71a4,4,0,0,0-4,4s0,2.448,0,3A1,1,0,0,0,68,134Zm15-4h0Zm-8-6a4,4,0,1,1,4-4A4,4,0,0,1,75,124Zm0-6a2,2,0,1,0,2,2A2,2,0,0,0,75,118Zm7,14a1,1,0,1,0,1,1A1,1,0,0,0,82,132Z"/>
  <path id="icon_search_c" class="cls-2" d="M83,84a1,1,0,1,1,1-1A1,1,0,0,1,83,84Zm-1.287-3.66a0.972,0.972,0,1,1-1.374,1.374L78.927,80.3A8,8,0,1,1,80.3,78.925ZM74,68a6,6,0,1,0,6,6A6,6,0,0,0,74,68Z"/>
  <path id="icon_home_c" class="cls-2" d="M82.71,25.7a0.992,0.992,0,0,1-1.4,0L75,19.387,68.684,25.7a0.992,0.992,0,1,1-1.4-1.4l7.013-7.019a0.991,0.991,0,0,1,1.4,0L82.71,24.3A0.994,0.994,0,0,1,82.71,25.7ZM80,29a1,1,0,1,1,1-1A1,1,0,0,1,80,29Zm-10.01-2a1,1,0,0,1,1,1v3H79V30.5a1,1,0,0,1,2,0V32a1,1,0,0,1-1,1H69.995a1,1,0,0,1-1-1V28A1,1,0,0,1,69.995,27Z"/>
</svg>
