<svg xmlns="http://www.w3.org/2000/svg" width="20" height="40" viewBox="0 0 20 40">
  <defs>
    <style>
      .cls-1 {
        fill: #6255f6;
        fill-rule: evenodd;
      }
    </style>
  </defs>
  <path id="icon_call" class="cls-1" d="M14,35.31l-1.76-3.4s-0.987.485-1.032,0.506c-1.12.543-3.4-3.91-2.3-4.5l1.041-.513L8.2,24l-1.053.52c-3.6,1.878,2.117,12.991,5.8,11.308C13.005,35.8,14,35.312,14,35.31Z"/>
  <path id="icon_location" class="cls-1" d="M10,9.5A1.5,1.5,0,1,1,11.5,8,1.5,1.5,0,0,1,10,9.5ZM10,4A3.976,3.976,0,0,0,6,7.8c0,3.121,3.188,3.451,4,8.2,0.811-4.748,4-5.078,4-8.2A3.976,3.976,0,0,0,10,4Z"/>
</svg>
