<svg xmlns="http://www.w3.org/2000/svg" width="24" height="72" viewBox="0 0 24 72">
  <defs>
    <style>
      .cls-1 {
        fill: #fff;
        fill-rule: evenodd;
      }
    </style>
  </defs>
  <path id="icon_youtube" class="cls-1" d="M16.441,64.891c-2.1.144-6.784,0.144-8.883,0C5.282,64.736,5.017,63.621,5,60c0.017-3.629.285-4.736,2.558-4.892,2.1-.143,6.782-0.144,8.883,0C18.718,55.263,18.982,56.377,19,60,18.982,63.628,18.715,64.736,16.441,64.891ZM10,57.658v4.684L14.917,60Z"/>
  <path id="icon_instagram" class="cls-1" d="M18.958,38.885a3.865,3.865,0,0,1-4.071,4.072C14.139,42.991,13.9,43,12,43s-2.139-.008-2.886-0.042a3.865,3.865,0,0,1-4.072-4.072C5.008,38.139,5,37.9,5,36s0.008-2.139.042-2.886a3.864,3.864,0,0,1,4.072-4.071C9.861,29.007,10.1,29,12,29s2.14,0.008,2.887.042a3.863,3.863,0,0,1,4.071,4.071C18.992,33.86,19,34.1,19,36S18.992,38.139,18.958,38.885ZM17.7,33.171a2.631,2.631,0,0,0-2.87-2.87c-0.738-.033-0.96-0.04-2.829-0.04s-2.09.007-2.828,0.04a2.63,2.63,0,0,0-2.87,2.87C6.269,33.909,6.261,34.13,6.261,36s0.008,2.091.041,2.829a2.63,2.63,0,0,0,2.87,2.87c0.737,0.034.959,0.04,2.828,0.04s2.091-.007,2.829-0.04a2.631,2.631,0,0,0,2.87-2.87c0.033-.738.04-0.959,0.04-2.829S17.732,33.909,17.7,33.171ZM15.737,33.1a0.84,0.84,0,1,1,.84-0.84A0.84,0.84,0,0,1,15.737,33.1ZM12,39.594A3.595,3.595,0,1,1,15.595,36,3.6,3.6,0,0,1,12,39.594Zm0-5.928A2.333,2.333,0,1,0,14.333,36,2.333,2.333,0,0,0,12,33.667Z"/>
  <path id="icon_twitter" class="cls-1" d="M18.066,9.644A8.168,8.168,0,0,1,5.5,16.9a5.775,5.775,0,0,0,4.252-1.189,2.878,2.878,0,0,1-2.684-1.995,2.881,2.881,0,0,0,1.3-.049,2.876,2.876,0,0,1-2.3-2.853,2.859,2.859,0,0,0,1.3.359,2.876,2.876,0,0,1-.889-3.835,8.155,8.155,0,0,0,5.92,3,2.874,2.874,0,0,1,4.895-2.619,5.744,5.744,0,0,0,1.824-.7A2.88,2.88,0,0,1,17.85,8.609,5.733,5.733,0,0,0,19.5,8.157,5.813,5.813,0,0,1,18.066,9.644Z"/>
</svg>
