<svg xmlns="http://www.w3.org/2000/svg" width="98" height="64" viewBox="0 0 98 64">
  <defs>
    <style>
      .cls-1 {
        fill: #74eb8b;
      }

      .cls-1, .cls-2 {
        fill-rule: evenodd;
      }

      .cls-2 {
        fill: #6255f6;
      }
    </style>
  </defs>
  <path id="mu" class="cls-1" d="M64,52V37a3,3,0,1,1,6,0V52a12,12,0,0,1-24,0V37a3,3,0,1,1,6,0V52A6,6,0,0,0,64,52ZM12,34a11.96,11.96,0,0,1,9,4.081A11.989,11.989,0,0,1,42,46v8a3,3,0,0,1-6,0V46a6,6,0,1,0-12,0V61a3,3,0,1,1-6,0V46A6,6,0,1,0,6,46V61a3,3,0,1,1-6,0V46A12,12,0,0,1,12,34ZM39,58a3,3,0,1,1-3,3A3,3,0,0,1,39,58Z"/>
  <path id="with" class="cls-2" d="M86,64A12,12,0,0,1,74,52V37a3,3,0,1,1,6,0V52a6,6,0,0,0,12,0V37a3,3,0,1,1,6,0V52A12,12,0,0,1,86,64Zm9-34a3,3,0,0,1-3-3V18H84v9a3,3,0,1,1-6,0V3a3,3,0,0,1,6,0v9h8V3a3,3,0,0,1,6,0V27A3,3,0,0,1,95,30ZM73,6H70V27a3,3,0,1,1-6,0V6H61a3,3,0,1,1,0-6H73A3,3,0,1,1,73,6ZM49,30a3,3,0,0,1-3-3V3a3,3,0,0,1,6,0V27A3,3,0,0,1,49,30ZM30,30a11.959,11.959,0,0,1-9-4.081A11.989,11.989,0,0,1,0,18V10a3,3,0,0,1,6,0v8a6,6,0,1,0,12,0V3a3,3,0,0,1,6,0V18a6,6,0,1,0,12,0V3a3,3,0,0,1,6,0V18A12,12,0,0,1,30,30ZM3,6A3,3,0,1,1,6,3,3,3,0,0,1,3,6Z"/>
</svg>
