<svg xmlns="http://www.w3.org/2000/svg" width="200" height="200" viewBox="0 0 200 200">
  <defs>
    <style>
      .cls-1 {
        fill: #6255f6;
      }

      .cls-2 {
        fill: #74eb8b;
        fill-rule: evenodd;
      }
    </style>
  </defs>
  <rect id="bg" class="cls-1" width="200" height="200"/>
  <path id="w" class="cls-2" d="M58.532,80.533a4.534,4.534,0,1,0,4.533-4.427,4.48,4.48,0,0,0-4.533,4.427m113,31.9L157.256,88.812a11.9,11.9,0,0,0-9.973-5.7,16.661,16.661,0,0,0-.039-8.707,17.425,17.425,0,0,0-8.519-10.681,18.642,18.642,0,0,0-9.02-2.312,18.368,18.368,0,0,0-15.765,8.682L112.8,71.981a17.513,17.513,0,0,0-7.812-8.659,18.651,18.651,0,0,0-9.02-2.312A18.365,18.365,0,0,0,80.2,69.692l-9.326,15.43-0.03.051-0.787,1.3-4.538,7.5-8.093,13.388a4.919,4.919,0,0,1-3.008,2.216,5.359,5.359,0,0,1-1.287.156,5.024,5.024,0,0,1-4.361-2.388L34.5,83.731a10.135,10.135,0,0,1-1.128-7.995A10.685,10.685,0,0,1,38.6,69.195a11.588,11.588,0,0,1,15.417,3.92,3.512,3.512,0,0,0,4.742,1.192,3.339,3.339,0,0,0,1.221-4.631,18.52,18.52,0,0,0-19.22-8.357l-0.143.027q-0.427.083-.851,0.186c-0.1.024-.2,0.047-0.308,0.074-0.206.054-.41,0.114-0.615,0.176q-0.561.166-1.116,0.368c-0.017.006-.034,0.011-0.051,0.019a18.417,18.417,0,0,0-2.549,1.155A17.423,17.423,0,0,0,26.612,74a16.717,16.717,0,0,0,1.854,13.183L42.741,110.8a11.921,11.921,0,0,0,10.324,5.712h0A11.924,11.924,0,0,0,63.391,110.8l2.755-4.559c0-.006.009-0.011,0.013-0.017l20.006-33.1a11.585,11.585,0,0,1,15.417-3.919,10.68,10.68,0,0,1,5.235,6.541,10.134,10.134,0,0,1-1.11,7.962L93.933,103.191c0,0.007-.006.014-0.01,0.021L79.864,126.474a11.592,11.592,0,0,1-15.417,3.919,10.7,10.7,0,0,1-5.218-6.482,3.473,3.473,0,0,0-4.255-2.366,3.372,3.372,0,0,0-2.423,4.155,17.443,17.443,0,0,0,8.492,10.581,18.639,18.639,0,0,0,24.784-6.37l25.824-42.726c0.005-.007.007-0.014,0.011-0.021L119.9,73.531a11.586,11.586,0,0,1,15.417-3.919,10.687,10.687,0,0,1,5.235,6.541,10.131,10.131,0,0,1-1.129,7.995l-2.793,4.621c-0.008.015-.018,0.028-0.027,0.043l-9.648,15.961s0,0.01-.007.015L113.6,126.873a11.586,11.586,0,0,1-15.415,3.92,11.373,11.373,0,0,1-1.854-1.274,3.521,3.521,0,0,0-4.884.34,3.325,3.325,0,0,0,.347,4.769,18.306,18.306,0,0,0,2.984,2.054,18.641,18.641,0,0,0,24.784-6.37l23.018-38.084a5.179,5.179,0,0,1,8.71.021l14.275,23.619a10.136,10.136,0,0,1,1.129,7.993,10.469,10.469,0,0,1-.744,1.93,11.661,11.661,0,0,1-20.041.769l-5.488-9.08-0.456-.755a0.419,0.419,0,0,1-.039-0.045c-0.461-.792-1.363-2.026-1.46-2.158a3.546,3.546,0,0,0-2.327-.863,3.446,3.446,0,0,0-3.5,3.387,3.247,3.247,0,0,0,.182,1.061l2.349,3.985,4.779,7.9a18.365,18.365,0,0,0,15.765,8.683,18.66,18.66,0,0,0,8.317-1.954,0.033,0.033,0,0,0,.01-0.006c0.232-.115.464-0.227,0.693-0.352v-0.008c0.043-.023.088-0.044,0.131-0.067a17.425,17.425,0,0,0,8.519-10.681,16.712,16.712,0,0,0-1.854-13.183"/>
</svg>
